<svg width="694" height="297" viewBox="0 0 694 297" fill="none" xmlns="http://www.w3.org/2000/svg">
<g clip-path="url(#clip0_16_9)">
<path d="M274.146 127.895H270.598L285.026 86.921H576.44C593.707 86.921 603.878 99.2368 600.33 114.632C598.675 122.21 596.073 131.921 592.288 144.947C588.504 157.974 561.302 150.158 539.067 136.184C532.208 131.921 530.315 128.842 520.381 128.132H274.146V127.895Z" fill="#D04941"/>
<path d="M688.797 105.158C699.204 75.7895 693.528 41.2105 674.841 19.6579L674.368 19.1842C663.724 6.86842 649.532 0 635.103 0L353.387 0.473684C330.443 0.473684 309.391 17.7632 299.93 44.5263L287.866 78.6316C287.866 78.6316 506.427 79.3421 579.28 79.3421C592.29 79.3421 601.515 84.7895 606.955 92.6053C610.503 97.8158 611.213 108 609.793 113.921L592.053 186.632C590.397 192.316 583.538 197.289 577.151 197.289H563.432C568.872 181.658 559.174 168.868 541.434 168.868C523.694 168.868 504.771 181.658 499.331 197.289H348.656C353.86 181.421 343.453 168.632 325.712 168.632C307.972 168.632 289.049 181.421 283.845 197.289H246.236L211.465 296.526L219.98 297H597.257C643.618 297 681.464 259.105 681.464 212.684C681.464 186.632 669.401 163.658 650.951 148.263L662.068 140.921C673.895 133.342 683.356 120.553 688.797 105.158ZM325.949 210.079C315.541 216.947 302.768 216.947 297.091 210.079C291.414 202.974 295.199 191.605 305.37 184.5C315.778 177.632 328.787 177.632 334.228 184.5C339.905 191.605 336.12 202.974 325.949 210.079ZM541.434 210.079C531.263 217.184 518.254 217.184 512.813 210.079C507.136 202.974 510.684 191.605 521.092 184.737C531.5 177.632 544.273 177.632 549.95 184.737C555.626 191.605 551.842 202.974 541.434 210.079Z" fill="#D04941"/>
<path d="M172.672 297H0L103.84 0.947388H276.512L172.672 297Z" fill="#2B2B2B"/>
</g>
<defs>
<clipPath id="clip0_16_9">
<rect width="694" height="297" fill="white"/>
</clipPath>
</defs>
</svg>
