<?xml version="1.0" encoding="UTF-8"?>
<svg id="Layer_2" data-name="Layer 2" xmlns="http://www.w3.org/2000/svg" xmlns:xlink="http://www.w3.org/1999/xlink" viewBox="0 0 348.62 318.8">
  <defs>
    <style>
      .cls-1 {
        fill: none;
      }

      .cls-2 {
        fill: #d04941;
      }

      .cls-3 {
        fill: #2b2b2b;
      }

      .cls-4 {
        fill: url(#New_Pattern_8);
      }
    </style>
    <pattern id="New_Pattern_8" data-name="New Pattern 8" x="0" y="0" width="39.34" height="45.08" patternTransform="translate(-1973.52 -459.49)" patternUnits="userSpaceOnUse" viewBox="0 0 39.34 45.08">
      <g>
        <rect class="cls-1" width="39.34" height="45.08"/>
        <g>
          <path class="cls-2" d="M36.26,44.21h-.15l.61-1.73h12.32c.73,0,1.16.52,1.01,1.17-.07.32-.18.73-.34,1.28s-1.31.22-2.25-.37c-.29-.18-.37-.31-.79-.34h-10.41Z"/>
          <path class="cls-2" d="M52.66,44.76l-.47.31c.78.65,1.29,1.62,1.29,2.72,0,1.96-1.6,3.56-3.56,3.56h-15.95l-.36-.02,1.47-4.19h1.59c.22-.67,1.02-1.21,1.77-1.21s1.19.54.97,1.21h6.37c.23-.66,1.03-1.2,1.78-1.2s1.16.54.93,1.2h.58c.27,0,.56-.21.63-.45l.75-3.07c.06-.25.03-.68-.12-.9-.23-.33-.62-.56-1.17-.56-3.08,0-12.32-.03-12.32-.03l.51-1.44c.4-1.13,1.29-1.86,2.26-1.86l11.91-.02c.61,0,1.21.29,1.66.81l.02.02c.79.91,1.03,2.37.59,3.61-.23.65-.63,1.19-1.13,1.51ZM38.8,46.6c-.23-.29-.78-.29-1.22,0-.43.3-.59.78-.35,1.08.24.29.78.29,1.22,0,.43-.3.59-.78.35-1.08ZM47.92,46.61c-.24-.3-.78-.3-1.22,0-.44.29-.59.77-.35,1.07.23.3.78.3,1.21,0,.44-.3.6-.78.36-1.07Z"/>
          <path class="cls-3" d="M36.37,38.85h-7.3l-4.39,12.5h7.3l4.39-12.5Z"/>
        </g>
        <g>
          <path class="cls-2" d="M-3.08,44.21h-.15l.61-1.73h12.32c.73,0,1.16.52,1.01,1.17-.07.32-.18.73-.34,1.28s-1.31.22-2.25-.37c-.29-.18-.37-.31-.79-.34H-3.08Z"/>
          <path class="cls-2" d="M13.32,44.76l-.47.31c.78.65,1.29,1.62,1.29,2.72,0,1.96-1.6,3.56-3.56,3.56H-5.37l-.36-.02,1.47-4.19h1.59c.22-.67,1.02-1.21,1.77-1.21s1.19.54.97,1.21h6.37c.23-.66,1.03-1.2,1.78-1.2s1.16.54.93,1.2h.58c.27,0,.56-.21.63-.45l.75-3.07c.06-.25.03-.68-.12-.9-.23-.33-.62-.56-1.17-.56-3.08,0-12.32-.03-12.32-.03l.51-1.44c.4-1.13,1.29-1.86,2.26-1.86l11.91-.02c.61,0,1.21.29,1.66.81l.02.02c.79.91,1.03,2.37.59,3.61-.23.65-.63,1.19-1.13,1.51ZM-.54,46.6c-.23-.29-.78-.29-1.22,0-.43.3-.59.78-.35,1.08.24.29.78.29,1.22,0,.43-.3.59-.78.35-1.08ZM8.58,46.61c-.24-.3-.78-.3-1.22,0-.44.29-.59.77-.35,1.07.23.3.78.3,1.21,0,.44-.3.6-.78.36-1.07Z"/>
        </g>
        <g>
          <path class="cls-2" d="M16.59,21.67h-.15l.61-1.73h12.32c.73,0,1.16.52,1.01,1.17-.07.32-.18.73-.34,1.28s-1.31.22-2.25-.37c-.29-.18-.37-.31-.79-.34h-10.41Z"/>
          <path class="cls-2" d="M32.99,22.22l-.47.31c.78.65,1.29,1.62,1.29,2.72,0,1.96-1.6,3.56-3.56,3.56h-15.95l-.36-.02,1.47-4.19h1.59c.22-.67,1.02-1.21,1.77-1.21s1.19.54.97,1.21h6.37c.23-.66,1.03-1.2,1.78-1.2s1.16.54.93,1.2h.58c.27,0,.56-.21.63-.45l.75-3.07c.06-.25.03-.68-.12-.9-.23-.33-.62-.56-1.17-.56-3.08,0-12.32-.03-12.32-.03l.51-1.44c.4-1.13,1.29-1.86,2.26-1.86l11.91-.02c.61,0,1.21.29,1.66.81l.02.02c.79.91,1.03,2.37.59,3.61-.23.65-.63,1.19-1.13,1.51ZM19.13,24.06c-.23-.29-.78-.29-1.22,0-.43.3-.59.78-.35,1.08.24.29.78.29,1.22,0,.43-.3.59-.78.35-1.08ZM28.25,24.07c-.24-.3-.78-.3-1.22,0-.44.29-.59.77-.35,1.07.23.3.78.3,1.21,0,.44-.3.6-.78.36-1.07Z"/>
          <path class="cls-3" d="M16.7,16.31h-7.3l-4.39,12.5h7.3l4.39-12.5Z"/>
        </g>
        <g>
          <path class="cls-2" d="M36.26-.87h-.15l.61-1.73h12.32c.73,0,1.16.52,1.01,1.17-.07.32-.18.73-.34,1.28s-1.31.22-2.25-.37c-.29-.18-.37-.31-.79-.34h-10.41Z"/>
          <path class="cls-2" d="M52.66-.32l-.47.31c.78.65,1.29,1.62,1.29,2.72,0,1.96-1.6,3.56-3.56,3.56h-15.95l-.36-.02,1.47-4.19h1.59c.22-.67,1.02-1.21,1.77-1.21s1.19.54.97,1.21h6.37c.23-.66,1.03-1.2,1.78-1.2s1.16.54.93,1.2h.58c.27,0,.56-.21.63-.45l.75-3.07c.06-.25.03-.68-.12-.9-.23-.33-.62-.56-1.17-.56-3.08,0-12.32-.03-12.32-.03l.51-1.44c.4-1.13,1.29-1.86,2.26-1.86l11.91-.02c.61,0,1.21.29,1.66.81l.02.02c.79.91,1.03,2.37.59,3.61-.23.65-.63,1.19-1.13,1.51ZM38.8,1.52c-.23-.29-.78-.29-1.22,0-.43.3-.59.78-.35,1.08.24.29.78.29,1.22,0,.43-.3.59-.78.35-1.08ZM47.92,1.53c-.24-.3-.78-.3-1.22,0-.44.29-.59.77-.35,1.07.23.3.78.3,1.21,0,.44-.3.6-.78.36-1.07Z"/>
          <path class="cls-3" d="M36.37-6.23h-7.3l-4.39,12.5h7.3l4.39-12.5Z"/>
        </g>
        <g>
          <path class="cls-2" d="M-3.08-.87h-.15l.61-1.73h12.32c.73,0,1.16.52,1.01,1.17-.07.32-.18.73-.34,1.28s-1.31.22-2.25-.37c-.29-.18-.37-.31-.79-.34H-3.08Z"/>
          <path class="cls-2" d="M13.32-.32l-.47.31c.78.65,1.29,1.62,1.29,2.72,0,1.96-1.6,3.56-3.56,3.56H-5.37l-.36-.02,1.47-4.19h1.59c.22-.67,1.02-1.21,1.77-1.21S.29,1.39.07,2.06h6.37c.23-.66,1.03-1.2,1.78-1.2s1.16.54.93,1.2h.58c.27,0,.56-.21.63-.45l.75-3.07c.06-.25.03-.68-.12-.9-.23-.33-.62-.56-1.17-.56-3.08,0-12.32-.03-12.32-.03l.51-1.44c.4-1.13,1.29-1.86,2.26-1.86l11.91-.02c.61,0,1.21.29,1.66.81l.02.02c.79.91,1.03,2.37.59,3.61-.23.65-.63,1.19-1.13,1.51ZM-.54,1.52c-.23-.29-.78-.29-1.22,0-.43.3-.59.78-.35,1.08.24.29.78.29,1.22,0,.43-.3.59-.78.35-1.08ZM8.58,1.53c-.24-.3-.78-.3-1.22,0-.44.29-.59.77-.35,1.07.23.3.78.3,1.21,0,.44-.3.6-.78.36-1.07Z"/>
        </g>
      </g>
    </pattern>
  </defs>
  <g id="Dimensions">
    <rect class="cls-4" width="348.62" height="318.8"/>
  </g>
</svg>